<?xml version="1.0" encoding="utf-8"?>
<!-- Generator: Adobe Illustrator 24.1.2, SVG Export Plug-In . SVG Version: 6.00 Build 0)  -->
<svg version="1.1" id="Layer_1" xmlns="http://www.w3.org/2000/svg" xmlns:xlink="http://www.w3.org/1999/xlink" x="0px" y="0px"
	 width="750px" height="505.09px" viewBox="0 0 750 505.09" enable-background="new 0 0 750 505.09" xml:space="preserve">
<path fill="none" stroke="#000000" d="M258.33,17.63c13.6,0,24.62-6.55,24.62-14.62"/>
<path fill="none" stroke="#000000" d="M258.33,18.38c13.6,0,24.62,6.55,24.62,14.62"/>
<line fill="none" stroke="#000000" x1="258.33" y1="18" x2="750" y2="18"/>
<path fill="none" stroke="#000000" d="M233.33,487.46c-13.6,0-24.62,6.55-24.62,14.62"/>
<path fill="none" stroke="#000000" d="M233.33,486.71c-13.6,0-24.62-6.55-24.62-14.62"/>
<line fill="none" stroke="#000000" x1="233.33" y1="487.09" x2="0" y2="487.09"/>
<rect y="3" fill="none" width="750" height="499.09"/>
<path fill="none" stroke="#000000" stroke-miterlimit="10" d="M187.75,412.63c0,18.62-33.92,37.23-93.63,37.23
	c-63.42,0-93.62,18.62-93.62,37.23 M187.75,412.63c0-18.61,30.2-37.23,93.62-37.23c59.71,0,93.63-18.61,93.63-37.23L0.5,401.46
	 M0.5,401.46c0-18.61,30.2-37.23,93.62-37.23c59.71,0,93.63-18.61,93.63-37.23 M375,252.54c0,18.61-33.92,37.23-93.63,37.23
	c-63.42,0-93.62,18.61-93.62,37.23 M562.25,178.09c0,18.61-33.92,37.23-93.63,37.23c-63.42,0-93.62,18.61-93.62,37.23
	 M562.25,178.09c0-18.61,30.2-37.23,93.62-37.23c59.71,0,93.63-18.62,93.63-37.23L375,166.91 M562.25,92.46
	c0,18.62-33.92,37.23-93.63,37.23c-63.42,0-93.62,18.61-93.62,37.23 M562.25,92.46c0-18.61,30.2-37.23,93.62-37.23
	c59.71,0,93.63-18.61,93.63-37.23"/>
</svg>
